<svg width="1090" height="1063" viewBox="0 0 1090 1063" fill="none" xmlns="http://www.w3.org/2000/svg">
<g clip-path="url(#clip0_54_257)">
<path opacity="0.1" d="M1068.28 437.21C1057.5 412.015 1042.92 388.642 1025.07 367.91L425.582 361.965L919.164 292.185C887.278 279.404 853.332 272.624 819.014 272.184C771.798 234.196 713.66 212.564 653.249 210.507C592.838 208.449 533.38 226.075 483.721 260.764C444.035 240.229 400.041 229.557 355.419 229.641C222.217 229.641 111.22 322.496 86.323 445.641L1068.28 437.21Z" fill="#128FED"/>
<path opacity="0.1" d="M1089.36 540.482C1089.39 507.089 1083.05 474.001 1070.68 443.016L31.6831 552.788C20.969 572.293 12.7734 593.096 7.29506 614.691L329.037 662.976L-0.0531616 698.197C9.8505 837.597 128.578 947.678 273.612 947.678C346.617 947.678 412.964 919.779 462.111 874.291C511.428 920.644 578.399 949.14 652.189 949.14C761.681 949.14 856.179 886.394 900.184 795.663C988.479 767.465 1057.06 696.639 1080.54 608.042L673.703 544.473H1089.36C1089.34 543.139 1089.36 541.816 1089.36 540.482Z" fill="#128FED"/>
</g>
<g clip-path="url(#clip1_54_257)">
<path d="M872.079 59.3855L860.71 58.2607L720.63 44.4035L709.26 43.2787C703.739 42.7391 698.06 44.5059 693.47 48.1915C688.881 51.8771 685.755 57.1805 684.778 62.9382L651.173 262.36C650.209 268.119 651.475 273.857 654.692 278.315C657.909 282.773 662.816 285.587 668.335 286.139L668.365 286.142L831.125 302.243L831.155 302.246C836.676 302.786 842.355 301.019 846.944 297.333C851.534 293.648 854.66 288.344 855.637 282.587L889.241 83.1646C890.206 77.4056 888.94 71.6678 885.723 67.2099C882.505 62.752 877.599 59.9381 872.079 59.3855Z" fill="#F2F2F2"/>
<path d="M871.026 65.6383L857.559 64.3061L721.673 50.8637L708.207 49.5315C704.275 49.1472 700.231 50.4054 696.962 53.03C693.694 55.6546 691.468 59.4312 690.772 63.5314L657.168 262.954C656.481 267.055 657.382 271.141 659.673 274.315C661.965 277.49 665.459 279.494 669.389 279.887L669.419 279.89L832.179 295.991L832.209 295.994C836.141 296.378 840.184 295.12 843.453 292.495C846.721 289.871 848.947 286.094 849.643 281.994L883.247 82.5719C883.934 78.4708 883.033 74.3848 880.742 71.2103C878.451 68.0357 874.957 66.0318 871.026 65.6383Z" fill="white"/>
<path d="M839.601 112.026L778.898 106.021C777.978 105.93 777.161 105.462 776.625 104.719C776.089 103.977 775.878 103.02 776.04 102.061C776.202 101.102 776.722 100.218 777.487 99.6042C778.251 98.9902 779.197 98.6964 780.117 98.7874L840.82 104.792C841.74 104.883 842.558 105.352 843.094 106.094C843.63 106.837 843.84 107.793 843.678 108.752C843.517 109.712 842.996 110.595 842.232 111.209C841.467 111.823 840.521 112.117 839.601 112.026Z" fill="#F2F2F2"/>
<path d="M851.847 125.648L776.841 118.228C775.921 118.137 775.104 117.669 774.568 116.926C774.032 116.183 773.821 115.227 773.983 114.268C774.145 113.309 774.665 112.425 775.43 111.811C776.194 111.197 777.14 110.903 778.06 110.994L853.066 118.414C853.522 118.459 853.957 118.597 854.347 118.821C854.737 119.044 855.074 119.348 855.34 119.716C855.605 120.084 855.793 120.508 855.894 120.964C855.994 121.42 856.004 121.899 855.924 122.374C855.844 122.849 855.675 123.31 855.427 123.732C855.179 124.154 854.856 124.527 854.478 124.831C854.099 125.135 853.672 125.364 853.221 125.504C852.77 125.644 852.303 125.693 851.847 125.648Z" fill="#F2F2F2"/>
<path d="M769.176 82.6653L713.211 77.129C712.77 77.0855 712.317 77.2263 711.951 77.5205C711.584 77.8146 711.335 78.2381 711.257 78.6976L703.58 124.257C703.503 124.717 703.603 125.175 703.86 125.531C704.117 125.886 704.509 126.111 704.949 126.155L760.914 131.691C761.355 131.734 761.808 131.594 762.175 131.299C762.541 131.005 762.79 130.582 762.868 130.122L770.545 84.5627C770.623 84.1031 770.522 83.645 770.265 83.2892C770.008 82.9334 769.616 82.709 769.176 82.6653Z" fill="#F2F2F2"/>
<path d="M829.778 169.773L747.441 161.628C746.986 161.583 746.55 161.445 746.16 161.221C745.77 160.998 745.433 160.694 745.168 160.326C744.902 159.958 744.714 159.534 744.614 159.078C744.513 158.622 744.503 158.143 744.583 157.668C744.663 157.193 744.832 156.731 745.08 156.31C745.328 155.888 745.651 155.515 746.029 155.211C746.408 154.907 746.835 154.678 747.287 154.538C747.738 154.398 748.204 154.349 748.66 154.394L830.996 162.539C831.916 162.63 832.734 163.098 833.27 163.841C833.806 164.584 834.016 165.54 833.854 166.499C833.693 167.458 833.172 168.342 832.408 168.956C831.643 169.57 830.697 169.864 829.778 169.773Z" fill="#F2F2F2"/>
<path d="M842.024 183.395L745.384 173.835C744.464 173.744 743.647 173.275 743.111 172.533C742.575 171.79 742.364 170.834 742.526 169.875C742.688 168.915 743.208 168.032 743.972 167.418C744.737 166.804 745.683 166.51 746.603 166.601L843.243 176.161C844.162 176.252 844.98 176.72 845.516 177.463C846.052 178.205 846.262 179.162 846.101 180.121C845.939 181.08 845.419 181.964 844.654 182.578C843.889 183.192 842.943 183.486 842.024 183.395Z" fill="#F2F2F2"/>
<path d="M705.142 173.528C711.59 178.292 720.987 176.436 726.132 169.382C731.277 162.328 730.221 152.746 723.773 147.982C717.325 143.217 707.927 145.074 702.782 152.128C697.637 159.182 698.694 168.763 705.142 173.528Z" fill="#F2F2F2"/>
<path d="M948.587 208.322L819.366 112.838C814.981 109.606 809.39 108.408 803.82 109.508C798.25 110.609 793.156 113.916 789.655 118.706L668.585 284.707C665.094 289.504 663.485 295.387 664.111 301.066C664.738 306.744 667.547 311.754 671.925 314.997L801.146 410.482C805.531 413.714 811.122 414.911 816.692 413.811C822.262 412.711 827.356 409.403 830.857 404.613L951.926 238.612C955.417 233.815 957.026 227.932 956.4 222.254C955.774 216.575 952.964 211.565 948.587 208.322Z" fill="#E6E6E6"/>
<path d="M944.791 213.527L815.57 118.042C812.448 115.741 808.466 114.888 804.5 115.671C800.533 116.455 796.905 118.81 794.412 122.221L673.343 288.222C670.857 291.638 669.711 295.828 670.157 299.872C670.603 303.915 672.604 307.483 675.721 309.793L804.942 405.277C808.064 407.579 812.046 408.431 816.012 407.648C819.979 406.864 823.606 404.509 826.099 401.098L947.169 235.097C949.655 231.681 950.801 227.492 950.355 223.448C949.909 219.404 947.908 215.836 944.791 213.527Z" fill="white"/>
<path d="M896.805 240.435L848.628 204.836C847.898 204.296 847.43 203.462 847.326 202.516C847.221 201.57 847.49 200.59 848.072 199.792C848.655 198.993 849.503 198.441 850.431 198.258C851.359 198.075 852.29 198.275 853.02 198.814L901.197 234.413C901.559 234.68 901.861 235.022 902.085 235.421C902.309 235.819 902.451 236.265 902.503 236.733C902.554 237.202 902.515 237.684 902.387 238.152C902.259 238.62 902.045 239.064 901.756 239.46C901.468 239.855 901.111 240.195 900.705 240.458C900.3 240.721 899.855 240.903 899.395 240.994C898.936 241.084 898.47 241.081 898.026 240.985C897.581 240.89 897.167 240.702 896.805 240.435Z" fill="#128FED"/>
<path d="M900.746 258.984L841.217 214.997C840.488 214.457 840.019 213.623 839.915 212.677C839.81 211.731 840.079 210.751 840.661 209.953C841.244 209.154 842.092 208.603 843.02 208.419C843.948 208.236 844.879 208.436 845.609 208.975L905.138 252.962C905.868 253.502 906.336 254.336 906.44 255.282C906.545 256.228 906.276 257.208 905.694 258.007C905.111 258.805 904.263 259.357 903.335 259.54C902.407 259.723 901.476 259.523 900.746 258.984Z" fill="#128FED"/>
<path d="M851.339 178.622L806.923 145.802C806.573 145.543 806.127 145.448 805.682 145.535C805.238 145.623 804.831 145.887 804.552 146.27L776.893 184.194C776.614 184.577 776.485 185.046 776.535 185.5C776.585 185.953 776.81 186.353 777.159 186.611L821.576 219.431C821.925 219.69 822.372 219.786 822.816 219.698C823.261 219.61 823.667 219.346 823.946 218.963L851.606 181.039C851.885 180.656 852.013 180.187 851.963 179.734C851.913 179.28 851.689 178.881 851.339 178.622Z" fill="#E6E6E6"/>
<path d="M802.122 178.093C799.805 181.308 796.471 183.604 792.776 184.528C789.133 185.425 785.114 184.835 782.663 182.039C780.406 179.464 780.096 175.282 782.635 172.375C783.171 171.736 783.828 171.214 784.558 170.845C785.288 170.477 786.075 170.272 786.863 170.244C787.652 170.216 788.423 170.366 789.123 170.683C789.823 171 790.436 171.477 790.918 172.081C792.941 174.692 791.023 179.467 787.519 179.785C786.678 179.861 786.523 178.526 787.372 178.449C789.688 178.24 791.246 175.187 790.049 173.248C788.655 170.99 785.311 171.159 783.557 173.264C781.477 175.76 781.873 179.088 783.784 181.215C785.851 183.516 789.258 183.937 792.28 183.274C795.763 182.486 798.921 180.356 801.092 177.332C801.203 177.189 801.36 177.092 801.53 177.062C801.7 177.031 801.87 177.069 802.004 177.168C802.137 177.267 802.224 177.418 802.246 177.591C802.268 177.763 802.224 177.943 802.122 178.093Z" fill="#2F2E41"/>
<path d="M806.955 192.69C817.105 200.19 831.898 197.268 839.997 186.164C848.095 175.06 846.433 159.978 836.283 152.479C826.133 144.979 811.34 147.901 803.242 159.005C795.143 170.109 796.806 185.19 806.955 192.69Z" fill="#128FED"/>
<path d="M814.422 180.468L814.951 179.703C816.257 180.608 817.447 181.353 818.787 181.302C819.175 181.276 819.559 181.165 819.915 180.976C820.27 180.787 820.587 180.524 820.845 180.205C821.008 180.013 821.128 179.789 821.197 179.55C821.266 179.311 821.282 179.063 821.243 178.825C821.059 177.891 820.033 177.391 819.133 177.234L818.357 177.099L825.8 169.193L826.406 169.797L820.075 176.523C821.18 176.897 821.919 177.634 822.104 178.579C822.171 178.948 822.152 179.335 822.049 179.71C821.946 180.085 821.763 180.437 821.512 180.738C821.168 181.168 820.742 181.523 820.265 181.777C819.788 182.031 819.27 182.178 818.75 182.208C817.028 182.274 815.583 181.273 814.422 180.468Z" fill="#2F2E41"/>
<path d="M833.004 175.656L829.305 172.923L828.757 173.674L832.456 176.407L833.004 175.656Z" fill="#2F2E41"/>
<path d="M821.329 167.029L817.63 164.296L817.082 165.047L820.781 167.78L821.329 167.029Z" fill="#2F2E41"/>
<path d="M789.222 195.525C791.297 195.586 793.332 195.937 795.273 196.568C795.546 195.879 795.996 195.267 796.57 194.803C797.31 194.227 798.191 193.898 799.084 193.867C799.976 193.835 800.831 194.103 801.522 194.629L806 197.938C806.706 198.445 807.217 199.187 807.455 200.055C807.693 200.923 807.647 201.87 807.323 202.754C807.056 203.444 806.612 204.057 806.041 204.525C807.22 206.2 808.162 208.049 808.843 210.023L789.222 195.525Z" fill="#2F2E41"/>
<path d="M848.112 180.678C848.101 179.987 847.956 179.316 847.686 178.704C847.448 178.169 847.084 177.712 846.625 177.37C845.986 176.911 845.207 176.684 844.399 176.72C842.212 176.769 839.542 178.386 837.572 181.087C835.101 184.476 834.576 188.412 836.201 190.365C836.367 190.563 836.554 190.741 836.761 190.894C839.031 192.571 843.093 190.907 845.813 187.177C847.392 185.013 848.176 182.627 848.112 180.678Z" fill="#3F3D56"/>
<path d="M811.061 151.837L811.057 151.834C810.826 151.183 810.419 150.625 809.883 150.221C809.421 149.882 808.879 149.669 808.3 149.601C807.64 149.525 806.96 149.587 806.302 149.783L806.296 149.784C804.433 150.31 802.406 151.778 800.83 153.938C798.704 156.853 798.017 160.172 798.903 162.29C799.142 162.874 799.526 163.375 800.019 163.745C800.129 163.826 800.245 163.9 800.365 163.966L800.369 163.968C802.687 165.253 806.485 163.574 809.072 160.027C811.143 157.187 811.846 153.955 811.061 151.837Z" fill="#3F3D56"/>
<path d="M799.632 161.834C799.714 161.894 799.81 161.932 799.913 161.945C800.015 161.958 800.121 161.945 800.222 161.908C800.322 161.87 800.415 161.809 800.492 161.73C800.568 161.65 800.627 161.555 800.663 161.451C802.014 157.52 804.203 153.894 807.061 150.852C809.918 147.811 813.366 145.437 817.137 143.914C820.907 142.391 824.9 141.761 828.803 142.073C832.706 142.385 836.415 143.63 839.642 145.711C842.869 147.793 845.526 150.655 847.408 154.074C849.29 157.494 850.345 161.38 850.492 165.43C850.638 169.48 849.873 173.584 848.254 177.425C846.635 181.265 844.207 184.738 841.159 187.573C841.024 187.699 840.939 187.87 840.922 188.051C840.905 188.231 840.958 188.405 841.07 188.535C841.181 188.664 841.341 188.739 841.515 188.742C841.689 188.745 841.862 188.676 841.997 188.551C845.203 185.57 847.756 181.919 849.458 177.881C851.16 173.843 851.966 169.528 851.812 165.27C851.658 161.012 850.548 156.926 848.57 153.331C846.591 149.735 843.797 146.726 840.405 144.537C837.012 142.349 833.112 141.04 829.008 140.713C824.904 140.385 820.707 141.048 816.742 142.649C812.778 144.25 809.153 146.747 806.149 149.946C803.145 153.144 800.844 156.957 799.424 161.09C799.377 161.227 799.372 161.372 799.409 161.506C799.446 161.639 799.524 161.754 799.632 161.834Z" fill="#3F3D56"/>
<path d="M840.352 166.379C840.287 168.004 838.86 169.203 837.41 169.574C835.523 170.056 833.876 168.957 832.66 167.71C831.295 166.311 830.23 164.301 828.27 163.677C826.6 163.145 824.677 163.767 823.045 163.074C821.597 162.459 820.408 160.978 821.024 159.222C821.32 158.378 822.531 158.817 822.236 159.656C821.838 160.793 823.058 161.666 823.937 161.919C825.346 162.325 826.932 161.952 828.371 162.277C830.067 162.661 831.274 163.945 832.347 165.233C833.357 166.447 834.447 167.945 836.088 168.285C837.303 168.537 838.989 167.749 839.048 166.291C839.082 165.415 840.386 165.513 840.352 166.379Z" fill="#2F2E41"/>
<path d="M861.669 288.458L796.323 240.172C795.962 239.905 795.661 239.563 795.437 239.165C795.214 238.767 795.072 238.321 795.02 237.852C794.969 237.384 795.008 236.902 795.136 236.435C795.264 235.967 795.479 235.523 795.767 235.128C796.055 234.732 796.412 234.394 796.817 234.13C797.221 233.867 797.666 233.685 798.126 233.594C798.585 233.504 799.05 233.506 799.494 233.602C799.939 233.697 800.353 233.884 800.715 234.151L866.061 282.436C866.789 282.976 867.257 283.81 867.361 284.756C867.464 285.701 867.196 286.68 866.614 287.478C866.032 288.276 865.184 288.827 864.257 289.011C863.33 289.195 862.399 288.996 861.669 288.458Z" fill="#E6E6E6"/>
<path d="M865.61 307.007L788.912 250.333C788.55 250.066 788.249 249.724 788.025 249.326C787.801 248.928 787.659 248.482 787.607 248.013C787.555 247.544 787.594 247.062 787.722 246.595C787.85 246.127 788.064 245.682 788.353 245.287C788.642 244.891 788.999 244.552 789.404 244.289C789.809 244.026 790.254 243.843 790.714 243.753C791.173 243.662 791.639 243.665 792.083 243.761C792.528 243.857 792.942 244.044 793.304 244.312L870.001 300.985C870.363 301.252 870.665 301.594 870.889 301.992C871.113 302.391 871.255 302.837 871.307 303.305C871.359 303.774 871.32 304.256 871.192 304.724C871.064 305.192 870.849 305.636 870.561 306.032C870.272 306.427 869.915 306.767 869.51 307.03C869.105 307.293 868.66 307.475 868.2 307.565C867.74 307.656 867.275 307.653 866.83 307.557C866.386 307.462 865.971 307.274 865.61 307.007Z" fill="#E6E6E6"/>
<path d="M835.034 324.978L769.687 276.692C768.958 276.153 768.489 275.319 768.385 274.373C768.28 273.427 768.549 272.447 769.131 271.648C769.714 270.85 770.562 270.298 771.49 270.115C772.418 269.932 773.349 270.132 774.079 270.671L839.425 318.957C840.155 319.496 840.624 320.331 840.728 321.277C840.832 322.223 840.564 323.203 839.981 324.001C839.399 324.8 838.55 325.351 837.623 325.534C836.695 325.718 835.763 325.518 835.034 324.978Z" fill="#E6E6E6"/>
<path d="M838.974 343.527L762.277 286.854C761.547 286.314 761.078 285.48 760.974 284.534C760.87 283.588 761.138 282.608 761.721 281.809C762.303 281.011 763.151 280.459 764.079 280.276C765.007 280.093 765.938 280.293 766.668 280.832L843.366 337.506C844.096 338.045 844.564 338.88 844.669 339.826C844.773 340.772 844.504 341.752 843.922 342.55C843.34 343.349 842.491 343.9 841.563 344.083C840.635 344.267 839.704 344.067 838.974 343.527Z" fill="#E6E6E6"/>
<path d="M759.717 235.791C766.165 240.555 775.563 238.699 780.708 231.645C785.853 224.591 784.797 215.01 778.349 210.245C771.901 205.481 762.503 207.337 757.358 214.391C752.213 221.445 753.269 231.026 759.717 235.791Z" fill="#E6E6E6"/>
<path d="M732.866 272.607C739.314 277.371 748.712 275.515 753.857 268.461C759.002 261.407 757.946 251.826 751.498 247.061C745.05 242.297 735.652 244.153 730.507 251.207C725.362 258.261 726.418 267.842 732.866 272.607Z" fill="#E6E6E6"/>
<path d="M808.182 361.794L742.836 313.508C742.107 312.969 741.638 312.135 741.534 311.189C741.429 310.243 741.698 309.263 742.28 308.464C742.863 307.666 743.711 307.114 744.639 306.931C745.567 306.748 746.498 306.948 747.228 307.487L812.574 355.773C813.304 356.312 813.773 357.147 813.877 358.093C813.981 359.038 813.713 360.019 813.13 360.817C812.548 361.615 811.699 362.167 810.771 362.35C809.844 362.534 808.912 362.334 808.182 361.794Z" fill="#E6E6E6"/>
<path d="M812.123 380.343L735.426 323.67C734.696 323.13 734.227 322.296 734.123 321.35C734.019 320.404 734.287 319.424 734.87 318.625C735.452 317.827 736.3 317.275 737.228 317.092C738.156 316.909 739.087 317.109 739.817 317.648L816.515 374.322C817.245 374.861 817.713 375.696 817.818 376.642C817.922 377.588 817.653 378.568 817.071 379.366C816.489 380.165 815.64 380.716 814.712 380.899C813.784 381.083 812.853 380.883 812.123 380.343Z" fill="#E6E6E6"/>
<path d="M706.015 309.423C712.463 314.187 721.861 312.331 727.006 305.277C732.151 298.223 731.095 288.642 724.647 283.877C718.199 279.113 708.801 280.969 703.656 288.023C698.511 295.077 699.567 304.658 706.015 309.423Z" fill="#E6E6E6"/>
</g>
<g clip-path="url(#clip2_54_257)">
<path d="M869.993 847.135L860.611 844.921L866.285 801.397L880.13 804.664L869.993 847.135Z" fill="#FFB6B6"/>
<path d="M832.953 858.36C832.544 859.945 833.331 861.523 834.71 861.883L853.218 866.718C853.218 866.718 856.94 859.824 865.183 858.592L862.978 869.267L872.526 871.761L875.739 854.51C875.739 854.51 880.631 846.109 876.522 840.088C872.413 834.067 876.543 835.835 876.543 835.835L877.161 824.799L862.293 822.738L857.941 839.178L846.725 853.694L835.138 856.118C834.107 856.334 833.248 857.215 832.953 858.36Z" fill="#2F2E41"/>
<path d="M959.931 836.866L951.375 841.326L927.557 804.554L940.184 797.97L959.931 836.866Z" fill="#FFB6B6"/>
<path d="M939.052 869.642C939.766 871.114 941.383 871.797 942.663 871.168L959.845 862.722C959.845 862.722 958.217 855.05 963.682 848.717L968.906 858.269L977.769 853.912L969.061 838.705C969.061 838.705 967.348 829.121 960.336 827.238C953.324 825.356 957.603 823.994 957.603 823.994L950.941 815.208L938.316 823.377L945.635 838.713L946.497 857.082L939.263 866.509C938.619 867.348 938.536 868.579 939.052 869.642Z" fill="#2F2E41"/>
<path d="M458.121 675.21H706.797C709.928 675.21 712.466 672.656 712.466 669.504V315.309C712.466 312.158 709.928 309.603 706.797 309.603H458.121C454.99 309.603 452.452 312.158 452.452 315.309V669.504C452.452 672.656 454.99 675.21 458.121 675.21Z" fill="white"/>
<path d="M713.526 676.278H451.392V308.536H713.526V676.278ZM453.513 674.143H711.405V310.671H453.513V674.143Z" fill="#E6E6E6"/>
<path d="M654.616 367.447C655.625 367.447 656.443 368.27 656.443 369.286V372.964C656.443 373.979 655.625 374.803 654.616 374.803H510.303C509.294 374.803 508.476 373.979 508.476 372.964V369.286C508.476 368.27 509.294 367.447 510.303 367.447H654.616Z" fill="#E6E6E6"/>
<path d="M654.616 384.914C655.625 384.914 656.443 385.737 656.443 386.753V390.431C656.443 391.447 655.625 392.27 654.616 392.27H510.303C509.294 392.27 508.476 391.447 508.476 390.431V386.753C508.476 385.737 509.294 384.914 510.303 384.914H654.616Z" fill="#E6E6E6"/>
<path d="M654.616 402.383C655.625 402.383 656.443 403.206 656.443 404.222V407.9C656.443 408.915 655.625 409.739 654.616 409.739H510.303C509.294 409.739 508.476 408.915 508.476 407.9V404.223C508.476 403.207 509.294 402.384 510.303 402.384L654.616 402.383Z" fill="#128FED"/>
<path d="M920.242 448.211H968.179C968.108 445.944 968.587 443.693 969.573 441.654C969.601 443.917 970.095 446.15 971.025 448.211H973.202C976.532 448.207 979.231 445.49 979.235 442.138V410.783C979.233 395.431 966.193 372.417 952.023 382.048C951.566 382.023 944.382 378.821 943.925 378.821C931.459 378.831 927.173 390.154 923.408 402.116C919.118 400.127 916.163 408.432 914.025 423.05C913.401 427.316 912.846 432.12 912.349 437.362C910.975 441.76 913.403 446.447 917.773 447.83C918.573 448.083 919.406 448.213 920.245 448.215L920.242 448.211Z" fill="#2F2E41"/>
<path d="M826.174 627.468C823.797 633.139 824.777 638.969 828.362 640.492C831.947 642.014 836.78 638.651 839.156 632.978C840.136 630.725 840.567 628.268 840.411 625.814L850.18 601.658L838.821 597.285L830.392 621.563C828.537 623.164 827.089 625.188 826.17 627.467L826.174 627.468Z" fill="#FFB6B6"/>
<path d="M931.208 437.598L954.12 442.422L950.606 453.034L957.635 534.201L945.92 560.336L874.46 554.44L892.032 519.063C892.032 519.063 885.003 489.585 894.375 483.687C903.748 477.788 918.977 448.31 918.977 448.31L931.208 437.598Z" fill="#128FED"/>
<path d="M952.566 447.116L972.865 455.388L965.836 559.154L981.065 648.77L931.863 657.025C931.863 657.025 937.721 458.926 941.234 455.388C944.748 451.851 952.566 447.111 952.566 447.111V447.116Z" fill="#2F2E41"/>
<path d="M912.811 460.057C912.811 460.057 899.604 451.646 892.468 457.874C885.332 464.102 830.392 614.65 830.392 614.65L845.211 621.13L879.196 549.406L912.811 460.057Z" fill="#2F2E41"/>
<path d="M874.975 713.712L861.576 817.395L880.32 818.574C880.32 818.574 890.065 791.806 901.184 760.276C903.551 753.59 905.975 746.692 908.377 739.783C910.977 732.284 913.567 724.783 916.026 717.544C922.106 699.692 927.437 683.443 930.482 672.831C931.008 670.968 931.477 669.283 931.864 667.795C940.059 636.099 944.749 553.268 944.749 553.268L876.803 547.372L876.077 548.28L861.576 566.522L862.255 570.378L880.32 672.363L874.978 713.717L874.975 713.712Z" fill="#2F2E41"/>
<path d="M880.317 672.362L874.975 713.715L899.002 756.293L901.18 760.278L934.262 820.793L950.604 811.465C950.604 811.465 929.342 762.282 916.022 717.544C914.546 712.627 913.175 707.757 911.945 703.017C908.325 689.137 914.253 663.81 911.934 656.829C904.097 633.269 878.558 586.138 866.703 564.786L862.251 570.376L880.317 672.362Z" fill="#2F2E41"/>
<path d="M919.272 447.422L895.551 456.573L833.462 639.343L870.95 645.239L888.522 539.114L919.272 447.422Z" fill="#2F2E41"/>
<path d="M978.594 644.707C979.198 650.831 982.826 655.482 986.699 655.095C990.571 654.708 993.22 649.43 992.615 643.303C992.407 640.852 991.619 638.487 990.317 636.406L987.435 610.488L975.38 612.109L979.501 637.487C978.63 639.786 978.319 642.262 978.594 644.707Z" fill="#FFB6B6"/>
<path d="M964.662 455.393C964.662 455.393 979.891 451.856 984.577 460.11C989.264 468.365 991.607 628.731 991.607 628.731L975.492 629.91L967.006 550.909L964.663 455.397L964.662 455.393Z" fill="#2F2E41"/>
<path d="M945.227 434.737C958.676 434.737 969.578 423.763 969.578 410.226C969.578 396.689 958.676 385.715 945.227 385.715C931.778 385.715 920.875 396.689 920.875 410.226C920.875 423.763 931.778 434.737 945.227 434.737Z" fill="#FFB6B6"/>
<path d="M955.002 448.21H967.028C967.639 448.21 968.159 447.735 968.187 447.121L968.19 447.053C968.256 445.773 970.041 445.557 970.455 446.77C970.622 447.258 970.812 447.738 971.025 448.21H972.208V410.421C972.208 403.939 966.988 398.685 960.548 398.685C955.051 398.685 950.3 402.551 949.148 407.962C949.148 407.962 940.975 418.052 945.792 423.725C950.609 429.397 943.601 434.015 943.601 434.015C942.046 441.32 947.579 448.21 955.002 448.21Z" fill="#2F2E41"/>
<path d="M556.27 492.227C558.969 490.475 559.537 486.726 557.65 484.112L548.807 471.864C546.742 469 542.761 468.364 539.916 470.443C539.664 470.627 539.426 470.83 539.203 471.049C524.23 479.106 516.17 490.873 525.131 504.782C525.131 507.105 525.3 509.425 525.635 511.723C525.78 512.72 526.114 513.696 526.679 514.528C528.357 516.998 531.319 517.905 533.925 517.05L548.387 512.32C551.46 511.315 553.123 507.939 551.988 504.894C550.522 500.959 551.126 495.567 556.27 492.227Z" fill="#F2F2F2"/>
<path d="M590.596 528.355C586.435 527.942 582.882 531.393 582.882 535.602V548.16C582.882 548.485 582.907 548.81 582.956 549.131C583.491 552.631 586.743 555.031 590.219 554.493C610.487 557.007 624.338 548.135 625.171 528.671C625.304 528.398 625.417 528.115 625.51 527.826C626.591 524.463 624.757 520.855 621.416 519.767L609.307 515.807C605.13 514.441 600.788 517.171 600.057 521.53C599.397 525.468 596.814 528.973 590.596 528.355Z" fill="#E6E6E6"/>
<path d="M515.732 540.634C519.935 565.744 541.824 575.271 564.653 576.776C565.1 576.845 565.551 576.88 566.004 576.881C570.927 576.883 574.921 572.867 574.924 567.911V546.913C574.924 541.04 570.141 536.465 564.306 536.406C558.665 536.349 554.989 533.662 553.479 528.729C551.753 523.094 545.602 520.123 540.031 521.945L520.989 528.174C518.522 528.98 516.526 530.826 515.52 533.232C514.519 535.613 514.596 538.315 515.732 540.634Z" fill="#3F3D56"/>
<path d="M633.042 453.808C629.528 450.344 623.889 450.402 620.447 453.94C620.14 454.254 619.857 454.592 619.6 454.948L602.681 478.389C600.517 481.387 601.754 485.562 605.136 487.026C613.056 490.454 612.224 498.149 609.645 502.859C608.381 505.167 609.424 508.055 611.914 508.869L640.426 518.194C645.116 519.719 650.147 517.127 651.661 512.405C651.813 511.93 651.926 511.443 651.998 510.948C652.488 507.663 652.734 504.345 652.734 501.023C657.557 482.919 650.883 465.854 633.042 453.808Z" fill="#128FED"/>
<path d="M584.079 480.989C587.239 482.779 591.224 481.913 593.355 478.961L599.024 471.109C600.124 469.586 600.506 467.654 600.069 465.824C599.647 464.026 598.463 462.506 596.83 461.664C583.491 449.534 567.704 448.789 554.317 461.602C552.634 462.457 551.409 464.013 550.967 465.857C550.53 467.675 550.909 469.594 552.002 471.106L558.626 480.283C560.901 483.435 565.308 484.259 568.443 481.975C572.999 478.655 579.616 478.46 584.079 480.989Z" fill="#E6E6E6"/>
<path d="M1032.82 869.896H130.423V871.693H1032.82V869.896Z" fill="#E6E6E6"/>
<path d="M509.401 639.177C509.91 637.008 512.3 636.295 514.255 636.378C515.489 636.461 516.714 636.657 517.914 636.96C519.169 637.243 520.413 637.578 521.651 637.933C523.92 638.584 526.164 639.371 528.471 639.881C530.405 640.414 532.443 640.444 534.392 639.968C536.267 639.45 537.743 637.993 538.294 636.115C538.854 634.322 538.048 632.383 536.385 631.526C534.847 630.672 532.912 631.236 532.064 632.784C532.051 632.807 532.039 632.83 532.027 632.853C531.314 634.764 531.874 636.919 533.424 638.234C534.218 638.985 535.089 639.65 536.02 640.219C536.966 640.868 538.019 641.342 539.129 641.62C541.018 642.124 543.014 641.34 544.064 639.681C544.273 639.284 544.399 638.848 544.433 638.4C544.488 637.791 543.543 637.794 543.487 638.4C543.328 640.146 541.297 640.962 539.776 640.772C538.751 640.601 537.772 640.218 536.901 639.648C536.059 639.154 535.262 638.588 534.518 637.956C533.23 636.833 532.022 634.987 532.887 633.235C533.561 632.11 535.013 631.747 536.131 632.425C536.28 632.515 536.419 632.622 536.545 632.743C537.898 633.858 537.657 635.878 536.765 637.202C535.693 638.583 534.039 639.377 532.298 639.346C530.462 639.349 528.637 639.061 526.89 638.492C524.711 637.87 522.554 637.173 520.365 636.586C519.123 636.253 517.87 635.953 516.605 635.719C515.409 635.454 514.18 635.368 512.959 635.465C510.897 635.563 509.113 636.941 508.486 638.921C508.35 639.52 509.261 639.774 509.401 639.177Z" fill="#3F3D56"/>
<path d="M546.851 614.361C547.136 614.361 547.367 615.184 547.367 616.2V619.878C547.367 620.893 547.136 621.717 546.851 621.717H506.061C505.776 621.717 505.545 620.894 505.545 619.878V616.2C505.545 615.184 505.776 614.361 506.061 614.361H546.851Z" fill="#E6E6E6"/>
<path d="M655.927 614.361C656.212 614.361 656.443 615.184 656.443 616.2V619.878C656.443 620.893 656.212 621.717 655.927 621.717H615.137C614.852 621.717 614.621 620.894 614.621 619.878V616.2C614.621 615.184 614.852 614.361 615.137 614.361H655.927Z" fill="#E6E6E6"/>
<path d="M637.765 635.078L629.668 637.771L625.62 639.118C624.377 639.653 623.031 639.902 621.68 639.847C620.682 639.78 619.806 639.156 619.413 638.23C619.24 637.303 619.636 636.362 620.418 635.841C622.35 634.361 624.793 635.867 626.163 637.399C627.837 639.273 628.785 641.693 630.356 643.654C631.753 645.415 633.526 646.838 635.543 647.817C639.573 649.829 644.38 649.415 648.012 646.744C652.28 643.43 652.716 637.686 652.738 632.675C652.722 632.194 652.32 631.817 651.842 631.834C651.388 631.85 651.023 632.218 651.007 632.675C650.987 637.217 650.73 642.784 646.616 645.626C642.675 648.348 637.497 647.626 633.867 644.725C631.997 643.049 630.441 641.049 629.274 638.819C627.978 636.684 626.37 634.623 623.931 633.795C621.775 633.006 619.365 633.854 618.166 635.823C617.132 637.574 617.705 639.836 619.445 640.876C619.579 640.957 619.719 641.028 619.862 641.091C622.69 642.447 625.925 640.858 628.647 639.952L638.229 636.765C639.281 636.415 638.831 634.731 637.768 635.084L637.765 635.078Z" fill="#128FED"/>
<path d="M277.968 837.917C277.862 837.824 277.781 837.775 277.726 837.776C276.405 837.787 275.228 838.485 274.579 839.639L260.356 866.227C260.031 866.805 259.871 867.438 259.877 868.07C259.882 868.702 260.053 869.332 260.388 869.905C261.058 871.05 292.47 871.462 292.47 871.462C293.791 871.45 297.416 855.093 277.968 837.917Z" fill="#E6E6E6"/>
<path d="M223.606 865.02L234.402 864.924L239.174 822.966L223.241 823.107L223.606 865.02Z" fill="#FFB6B6"/>
<path d="M260.591 864.449C260.932 865.016 261.125 866.853 261.131 867.516C261.149 869.553 259.523 871.218 257.499 871.236L224.067 871.53C222.686 871.542 221.557 870.426 221.545 869.036L221.533 867.635C221.533 867.635 219.843 863.439 223.203 858.219C223.203 858.219 227.47 862.245 233.738 855.825L235.574 852.408L249.158 862.226L256.649 863.087C258.287 863.276 259.737 863.029 260.591 864.449Z" fill="#2F2E41"/>
<path d="M264.677 828.795L274.934 832.185L292.806 793.975L277.667 788.972L264.677 828.795Z" fill="#FFB6B6"/>
<path d="M299.895 840.177C300.038 840.824 299.636 842.627 299.431 843.256C298.8 845.192 296.729 846.245 294.806 845.61L263.042 835.11C261.73 834.677 261.016 833.255 261.446 831.935L261.881 830.604C261.881 830.604 261.615 826.084 266.459 822.222C266.459 822.222 269.22 827.412 277.201 823.35L280.027 820.705L289.772 834.386L296.594 837.616C298.086 838.323 299.538 838.556 299.895 840.177Z" fill="#2F2E41"/>
<path d="M279.16 585.508L300.729 655.119L326.014 717.679L287.687 807.701L266.362 799.337L285.448 721.424L252.822 663.25L237.403 837.886L218.646 835.626L194.258 626.435L198.083 580.945L279.16 585.508Z" fill="#2F2E41"/>
<path d="M257.092 427.012L233.788 421.35L227.359 436.719C227.359 436.719 195.868 442.074 194.258 466.34C194.258 466.34 187.982 498.193 192 507.091C196.017 515.989 205.922 547.455 205.922 547.455C205.922 547.455 190.239 586.656 194.258 589.079C198.277 591.502 284.388 600.336 284.388 595.483C284.388 590.63 285.371 532.971 285.371 532.971L281.999 445.613L260.307 437.528L257.092 427.012Z" fill="#E6E6E6"/>
<path d="M253.148 423.103C266.118 423.103 276.632 412.52 276.632 399.465C276.632 386.41 266.118 375.827 253.148 375.827C240.178 375.827 229.664 386.41 229.664 399.465C229.664 412.52 240.178 423.103 253.148 423.103Z" fill="#FFB6B6"/>
<path d="M237.598 402.979C239.472 404.011 237.696 408.942 238.867 409.368C240.221 409.86 245.156 404.203 245.214 397.868C245.232 395.951 244.794 395.03 245.214 392.757C245.765 389.784 247.456 386.276 249.023 386.369C249.951 386.423 250.859 387.745 250.927 388.924C251.022 390.577 249.427 391.228 249.657 392.118C250.096 393.814 256.794 394.983 259.178 392.118C261.047 389.873 259.612 385.932 260.447 385.73C261.063 385.581 261.726 387.751 264.256 390.202C265.209 391.125 266.626 392.499 267.429 392.118C268.589 391.569 267.745 387.698 268.064 387.646C268.328 387.604 268.495 390.325 269.968 392.757C271.861 395.882 275.764 398.29 277.584 397.229C278.7 396.579 278.787 394.77 278.854 393.396C278.994 390.501 283.171 383.842 282.088 380.746C279.886 374.444 276.117 378.888 274.411 376.786C272.101 373.939 270.031 375.471 266.16 372.314C262.378 369.229 262.344 366.128 259.813 365.925C257.533 365.742 256.723 368.19 254.1 367.842C251.879 367.546 251.395 365.648 249.657 365.925C248.067 366.179 247.963 367.851 245.849 368.48C244.5 368.882 244.203 368.301 242.676 368.48C239.497 368.853 237.363 371.768 236.963 372.314C235.422 374.418 236.021 375.306 234.424 377.424C233.048 379.252 229.996 378.477 228.849 379.39C225.1 382.372 223.491 387.871 223.461 394.137C223.44 398.519 224.008 400.734 225.277 406.265C226.24 410.465 230.698 415.892 233.155 418.312C233.815 418.961 235.664 420.782 236.963 420.228C238.195 419.704 238.231 417.345 238.233 417.034C238.238 415.963 237.954 414.638 235.694 411.284C233.32 407.761 232.377 407.359 232.52 406.173C232.774 404.077 236.104 402.156 237.598 402.979Z" fill="#2F2E41"/>
<path d="M171.188 638.755C170.37 645.628 173.23 651.625 177.575 652.149C181.921 652.673 186.107 647.525 186.925 640.652C187.283 637.643 186.936 634.802 186.068 632.515L189.171 603.346L175.541 602.173L173.929 631.052C172.549 633.068 171.546 635.746 171.188 638.755Z" fill="#FFB6B6"/>
<path d="M210.434 445.046C210.434 445.046 203.373 445.144 198.694 454.334C196.208 459.218 180.047 546.746 180.047 546.746L175.506 574.429L177.84 579.007C174.131 584.718 173.109 591.783 175.049 598.321L170.613 625.367L191.471 625.48L207.75 554.628L221.437 513.536L210.434 445.046Z" fill="#E6E6E6"/>
<path d="M317.001 637.688C317.819 644.561 314.959 650.558 310.614 651.082C306.268 651.605 302.082 646.458 301.265 639.585C300.907 636.576 301.253 633.735 302.121 631.448L299.019 602.279L312.649 601.105L314.26 629.985C315.64 632.001 316.643 634.679 317.001 637.688Z" fill="#FFB6B6"/>
<path d="M277.755 443.978C277.755 443.978 284.816 444.077 289.495 453.267C291.982 458.15 308.143 545.679 308.143 545.679L312.683 573.362L310.349 577.94C314.059 583.65 315.08 590.716 313.141 597.253L317.577 624.3L296.718 624.413L280.439 553.561L266.752 512.469L277.755 443.978Z" fill="#E6E6E6"/>
<path d="M915.956 406.586C916.822 408.013 921.418 402.791 928.475 402.215C930.272 402.065 934.323 408.99 938.97 409.09C942.049 409.153 943.945 409.128 947.737 409.09C952.219 409.04 953.446 408.94 954.312 407.838C955.989 405.697 954.608 401.891 955.408 401.578C956.076 401.315 957.808 403.669 958.696 406.586C960.559 412.709 953.874 421.235 953.216 429.123C952.515 437.625 959.419 421.335 958.696 429.123C957.885 437.888 954.981 437.224 955.013 440.392C955.024 440.868 955.145 441.281 955.408 441.644C955.638 441.969 955.868 442.095 959.792 442.896C964.482 443.86 966.838 444.336 967.463 444.148C969.074 443.672 970.707 441.03 971.846 439.14C973.731 436.047 972.394 439.165 971.846 435.384C971.32 431.727 969.676 431.252 969.655 427.871C969.633 423.614 972.23 422.324 974.038 417.855C977.381 409.591 974.115 400.025 972.942 396.569C972.379 394.912 971.358 392.815 969.567 389.349C968.13 386.567 966.223 384.116 963.896 382.28C960.41 379.528 956.36 377.642 951.981 376.895C949.583 376.486 947.138 376.701 944.78 377.348L938.672 379.025C936.105 379.729 933.685 381.007 931.551 382.783C929.562 382.791 927.837 384.259 927.155 386.394C927.084 386.618 927.019 386.748 926.965 386.729C915.956 382.797 915.963 394.442 916.084 401.717C916.096 402.462 916.073 403.121 915.989 403.656V403.694C915.77 405.133 915.715 406.185 915.956 406.586Z" fill="#2F2E41"/>
<path d="M772.842 470.902H656.938V473.037H772.842V470.902Z" fill="#3F3D56"/>
<path d="M796.169 485.813C787.984 485.813 781.324 479.11 781.324 470.871C781.324 462.632 787.984 455.929 796.169 455.929C804.355 455.929 811.014 462.632 811.014 470.871C811.014 479.11 804.355 485.813 796.169 485.813ZM796.169 458.063C789.153 458.063 783.445 463.809 783.445 470.871C783.445 477.933 789.153 483.679 796.169 483.679C803.185 483.679 808.893 477.933 808.893 470.871C808.893 463.809 803.185 458.063 796.169 458.063Z" fill="#3F3D56"/>
<path d="M796.169 478.342C800.269 478.342 803.592 474.997 803.592 470.871C803.592 466.745 800.269 463.4 796.169 463.4C792.07 463.4 788.747 466.745 788.747 470.871C788.747 474.997 792.07 478.342 796.169 478.342Z" fill="#128FED"/>
<path d="M508.08 549.882H392.176V552.017H508.08V549.882Z" fill="#3F3D56"/>
<path d="M354.004 549.851C354.004 541.612 360.663 534.909 368.848 534.909C377.034 534.909 383.693 541.612 383.693 549.851C383.693 558.09 377.034 564.793 368.848 564.793C360.663 564.793 354.004 558.09 354.004 549.851ZM356.124 549.851C356.124 556.913 361.832 562.659 368.848 562.659C375.864 562.659 381.573 556.913 381.573 549.851C381.573 542.789 375.864 537.044 368.848 537.044C361.832 537.044 356.124 542.789 356.124 549.851Z" fill="#3F3D56"/>
<path d="M368.848 557.322C372.948 557.322 376.271 553.977 376.271 549.851C376.271 545.725 372.948 542.38 368.848 542.38C364.749 542.38 361.426 545.725 361.426 549.851C361.426 553.977 364.749 557.322 368.848 557.322Z" fill="#128FED"/>
</g>
<defs>
<clipPath id="clip0_54_257">
<rect width="1089.35" height="852.656" fill="white" transform="translate(0 210.344)"/>
</clipPath>
<clipPath id="clip1_54_257">
<rect width="321.871" height="327.262" fill="white" transform="matrix(0.804255 0.594284 -0.589259 0.807944 751.646 -33)"/>
</clipPath>
<clipPath id="clip2_54_257">
<rect width="902.393" height="563.225" fill="white" transform="translate(130.423 308.536)"/>
</clipPath>
</defs>
</svg>
